<?xml version="1.0"?>
<svg width="580" height="400" xmlns="http://www.w3.org/2000/svg">
 <!-- Created with Method Draw - http://github.com/duopixel/Method-Draw/ -->
 <defs>
  <filter height="200%" width="200%" y="-50%" x="-50%" id="svg_1_blur">
   <feGaussianBlur stdDeviation="1.2"/>
  </filter>
 </defs>
 <g>
  <title>background</title>
  <rect x="-1" y="-1" width="582" height="402" id="canvas_background" fill="none"/>
 </g>
 <g>
  <title>Layer 1</title>
  <path opacity="0.34" filter="url(#svg_1_blur)" id="svg_1" d="m277.906097,58.934349l0,21.648323c-56.861084,3.02861 -101.660507,35.238327 -101.660507,74.519302c0,-7.071289 12.362473,-12.812714 27.615341,-12.812714c15.248413,0 27.641388,5.741425 27.641388,12.812714c0,-7.071289 12.360931,-12.812714 27.613953,-12.812714c7.243469,0 13.835449,1.343109 18.789825,3.46283l0,105.530655c0,4.714417 -3.97644,8.546448 -8.848602,8.546448c-4.87619,0 -8.852631,-3.832031 -8.852631,-8.546448l0,-4.279175l-17.673004,0l0,4.279175c0,14.155304 11.899811,25.651611 26.525635,25.651611s26.525299,-11.496307 26.525299,-25.651611l0,-105.530655c4.926483,-2.132996 11.519409,-3.46283 18.789917,-3.46283c15.222076,0 27.614807,5.741425 27.614807,12.812714c0,-7.071289 12.392578,-12.812714 27.614014,-12.812714c15.278473,0 27.644073,5.741425 27.644073,12.812714c0,-39.267677 -44.801147,-71.477386 -101.662811,-74.519302l0,-21.648323l-17.676697,0z" stroke-width="1.5" stroke="#000" fill="#fff"/>
  <path id="svg_2" d="m167.5,37.5c96,165 325,189 169,210c-156,21 -235,-90 -127,-42c108,48 174,-55 195,-73c21,-18 -443,120 -439,117c4,-3 608,-11 607.5,-11.5c0.5,0.5 -259.5,-169.5 -260.5,-170.5c-1,-1 -44,311 -39,315" opacity="0.5" fill-opacity="null" stroke-opacity="null" stroke-width="1.5" stroke="#000" fill="#fff"/>
  <line stroke-linecap="null" stroke-linejoin="null" id="svg_3" y2="146.5" x2="371.5" y1="149.5" x1="288.5" fill-opacity="null" stroke-opacity="null" stroke-width="1.5" stroke="#000" fill="none"/>
  <line stroke-linecap="null" stroke-linejoin="null" id="svg_4" y2="232.5" x2="152.5" y1="293.5" x1="461.5" fill-opacity="null" stroke-opacity="null" stroke-width="1.5" stroke="#000" fill="none"/>
  <line stroke-linecap="null" stroke-linejoin="null" id="svg_5" y2="311.5" x2="367.5" y1="29.5" x1="123.5" fill-opacity="null" stroke-opacity="null" stroke-width="1.5" stroke="#000" fill="none"/>
  <rect id="svg_7" height="427.999995" width="621.999991" y="-10" x="-11" stroke-opacity="null" stroke-width="1.5" fill="#894F3F" stroke="#000"/>
  <rect id="svg_8" height="1" width="2" y="123.5" x="773.5" fill-opacity="null" stroke-opacity="null" stroke-width="1.5" stroke="#000" fill="#fff"/>
  <path fill="#A0D58A" stroke="#000" stroke-width="1.5" stroke-opacity="null" d="m301.187683,158.489838c-72.942657,0 -132.027863,45.443924 -132.027863,101.5c0,56.056 59.085205,101.5 132.027863,101.5c72.88681,0 131.972168,-45.444 131.972168,-101.5c0,-56.056076 -59.085358,-101.5 -131.972168,-101.5zm28.655792,152.271606c-0.720428,0.446045 -1.663239,0.91687 -0.942627,1.449646c0.720978,0.532776 -0.831055,0.91687 -0.831055,1.170868s0.942627,1.728424 0.498749,2.366516c-0.498749,0.641266 -0.831238,1.554962 -1.219421,2.087738c-0.332611,0.532776 -1.163971,1.087311 -0.941895,1.898865c0.221039,0.80838 -0.942627,0.554382 -0.942627,1.362915c0,0.811554 1.053223,0.449066 0.831177,1.449646c-0.221069,1.003601 -0.831177,1.279205 -0.831177,1.982422c0,0.724823 0.610107,1.72525 0.610107,2.004028s-0.610107,1.192627 -1.441406,1.895691c-0.83139,0.724823 -1.385742,1.195648 -1.274506,1.641693c0.110657,0.449219 0.941711,1.003601 0.83139,1.279358c-0.166382,0.257019 -1.219635,1.173889 -1.053406,1.811981c0.110779,0.619507 1.163727,0.362488 1.385742,0.808533c0.2211,0.449066 -1.385742,0.811554 -0.720612,1.279205c0.720612,0.449219 1.662689,0.340729 1.441223,1.449646c-0.166718,0.789948 0.553925,1.130676 1.108429,1.387695c-8.092651,1.533356 -16.461914,2.450226 -25.219482,2.450226c-57.755249,0 -104.702057,-36.129639 -104.702057,-80.548279c0,-14.47168 5.043457,-28.05127 13.801025,-39.794006c0.665771,-0.297363 1.219513,-0.467743 1.552002,-0.42746c0.554443,0.086731 0.6651,0.724823 1.66333,0.895172c0.941895,0.192047 1.718292,-0.532776 2.327637,-0.808441c0.610229,-0.278778 1.053345,-1.366028 0.443115,-1.257599c-0.553589,0.083618 -2.105713,0 -2.105713,0s1.662598,-0.746521 1.662598,-1.195648s0.221893,-1.170898 1.163818,-1.446564c0.942474,-0.278778 0.942474,-0.108429 0.332642,1.000488c-0.553833,1.08725 1.219391,0.619537 1.940033,0.17038s1.163849,-0.086731 2.439117,-0.724823c1.329987,-0.638092 1.329987,-1.000519 1.995056,-1.000519c0.720673,0 2.050568,1.000519 2.71582,0.638092c0.72052,-0.362396 2.71579,0.449158 3.93512,0.449158c1.164734,0 4.933868,1.192566 5.653748,1.192566c0.720642,0 2.827118,0.616394 2.937836,1.790375c0.111176,1.192535 0.831207,1.108917 1.551758,1.108917s2.328339,0.446045 2.328339,0.895172c0,0.446045 -0.443573,2.279785 0.720245,2.728912c1.164551,0.446045 2.216949,1.170868 2.716461,1.000519c0.498779,-0.192047 0,-1.641693 -0.554443,-1.812073c-0.610291,-0.192047 -0.277527,-0.830139 -0.498688,-1.192535c-0.221954,-0.340729 0.720703,-0.340729 1.053131,0.275665c0.387421,0.641205 1.330048,1.812073 1.884521,1.812073c0.609283,0 1.884613,1.087219 1.55191,1.725311c-0.388031,0.641205 0.332703,1.558075 1.384918,1.558075c1.053406,0 2.384277,1.257599 2.827393,1.341217c0.49881,0.108429 1.108093,0.554474 1.108093,0.833252c0,0.275665 0.554535,1.812042 0.554535,2.450134c0,0.619507 -0.332794,3.174988 -0.443115,4.156891s0.941772,2.728943 2.106354,3.6427c1.163818,0.895203 2.21701,2.623627 2.937103,2.986023c0.720612,0.362427 1.164551,1.362946 2.21701,1.279297c1.108734,-0.086731 1.773804,0.554443 2.716431,1.812073c0.99762,1.276184 1.939606,3.367004 2.604492,3.537384c0.720856,0.192047 1.884674,0.808441 1.33078,1.279266c-0.609924,0.446045 -1.55191,1.449646 -0.498688,1.449646c1.052582,0 1.440491,-0.449158 2.271973,0.362427c0.776367,0.808441 1.88443,1.279266 1.718353,1.812042c-0.110657,0.551361 0.997559,0.724823 1.441406,0.808441c0.498779,0.105316 1.551727,1.725342 2.605164,1.000519c1.053284,-0.724823 -1.385742,-1.80896 -2.106384,-2.279785c-0.720703,-0.446045 0,-1.427979 -1.66275,-2.428467c-1.663177,-1.003601 -1.441528,-1.728424 -2.605164,-2.453247c-1.16391,-0.724823 -2.106537,-1.362915 -0.942627,-2.001007c1.164459,-0.641205 1.275238,0.638092 1.773956,1.446533c0.443115,0.811554 2.937805,2.453278 3.990845,3.178101c1.053406,0.724792 2.937866,3.261688 3.547302,3.261688s2.216949,1.446472 2.216949,1.446472s0.942627,1.195648 0.610199,1.558136c-0.332794,0.362335 0.498688,1.72525 1.274414,2.087738c0.831146,0.362335 4.157227,1.536377 4.656006,1.706665c0.443115,0.192047 1.385742,1.554962 2.71582,1.554962c1.275085,0 2.216888,0.086731 2.549408,0.362488c0.388184,0.275574 1.441528,1.362915 2.162262,0.724823c0.719818,-0.641266 0.775543,-0.91687 1.884491,-0.91687c1.053101,0 1.496216,0.638092 2.105652,1.108917c0.610199,0.446045 2.217072,1.641693 3.048889,1.533173c0.831512,-0.083527 1.884644,0.724823 2.493988,0.449249s1.552124,0.170258 1.995239,0.362305c0.499512,0.192047 2.106384,0.830139 2.050812,1.895691c-0.166351,1.108917 0.886963,1.366119 1.607697,1.641693c0.720673,0.275787 1.662476,0.91687 2.272705,1.362915c0.554382,0.449249 1.884521,0.532776 2.216858,0.811554c0.388306,0.275787 0.609497,0.808563 1.662628,0.362518c1.053253,-0.449249 0.831329,-1.257599 0.831329,-1.257599s1.164551,-0.192047 1.774048,0.170258c0.554321,0.362518 0.941864,1.533386 1.330078,1.725433c0.332397,0.170258 0.997528,1.536377 0.554413,2.515198c-0.443115,1.025177 -0.332642,2.003998 -0.831543,2.003998c-0.498627,0 -1.052948,1.192657 -1.773682,1.471436c-0.665009,0.256989 -2.605194,1.533173 -2.493866,1.982422c0.166107,0.446045 1.21936,1.811951 0.941833,2.450043c-0.221191,0.641296 -1.718353,1.366119 -1.385742,2.366547c0.332581,1.00058 2.827087,1.279358 2.937775,2.174469c0.111237,0.91687 1.884491,2.921051 2.162109,3.816162c0.2211,0.91687 2.217072,1.895691 2.217072,3.15329c0,1.300964 2.826385,2.109497 3.436371,2.196228c0.553741,0.083557 1.66275,0.91687 2.438202,1.170868s1.552185,0.811554 2.106354,1.557983s0.498901,1.80896 0.498901,2.087738c0,0.275757 -0.332489,3.069733 -0.720551,4.711426c-0.33252,1.641693 0.498779,2.896118 -0.221466,3.366943zm-76.212616,-84.386047c0.332367,0.086731 1.05304,0.641174 1.441406,0.641174c0.332428,0 2.106354,1.08725 2.549469,1.449646c0.498718,0.362427 0.498718,1.362915 -0.110779,1.449646s-0.942627,-1.003601 -1.052948,-1.449646c-0.11142,-0.449127 -1.275421,-0.449127 -1.884521,-0.724823c-0.61026,-0.278778 -1.884613,-1.619995 -0.942627,-1.365997zm152.036865,36.470367c-1.274384,1.279175 -1.163818,1.895691 -1.773224,2.003998c-0.554352,0.08374 0.609406,0.446045 0.83139,1.362915c0.221649,0.768188 -0.554596,1.558167 0.554352,2.28299c-4.379181,32.248352 -33.64444,58.89032 -72.776337,68.35321c-0.055664,-0.083557 -0.16629,-0.170288 -0.16629,-0.232239c-0.276825,-0.554535 -0.276825,-1.641693 0.554474,-2.004181c0.831116,-0.362335 2.826416,-1.619934 3.325104,-1.898712c0.443939,-0.275757 1.16452,-1.533356 0.832123,-1.725403c-0.388184,-0.170288 -2.106598,0 -2.383331,-0.275604c-0.222168,-0.257172 -0.222168,-0.641266 0.941925,-1.257599c1.163666,-0.641266 1.773804,-1.558136 2.216919,-1.812134c0.498901,-0.278778 1.441528,-0.83316 1.774017,-1.471252c0.387939,-0.619507 -0.332489,-0.278778 -1.053284,-0.278778s-1.053131,-0.978821 -1.053131,-1.446625s1.773926,0.192047 3.048279,0.381073c1.330719,0.151703 0.720764,-0.467804 0.610199,-1.00058c-0.111481,-0.554382 0.221008,-1.449646 0.941864,-1.192474c0.720673,0.275604 4.378998,-0.086731 4.822113,-0.170441c0.498901,-0.086731 1.773926,-1.728424 2.217041,-2.174469c0.498657,-0.470825 0.610229,-0.91687 0,-1.195648c-0.55426,-0.275604 -1.274414,-1.276184 -1.496185,-1.533203c-0.221954,-0.275757 -0.332672,-1.91745 -0.110748,-2.366516c0.221191,-0.446045 0,2.623535 1.606934,3.004608c1.662781,0.362335 2.605408,0.532776 4.157227,-0.554535c1.552094,-1.084137 2.715973,-1.80896 2.826508,-2.533783c0.111328,-0.724823 0.499512,-1.449646 1.053131,-1.728424c0.61026,-0.253998 0.942657,0.724823 1.66333,-0.446045c0.720154,-1.195648 1.440765,-1.087158 2.105896,-2.090759c0.720612,-1.00058 -1.164124,-2.258179 0.221619,-3.004608c1.44162,-0.703217 3.935638,-1.620087 3.935638,-1.620087s0.720581,-0.275604 2.106323,-0.554382c1.440674,-0.253998 2.937805,-0.08371 3.436676,-0.616486c0.443115,-0.554382 0.941803,-1.728424 1.662445,-2.366516c0.720825,-0.641113 1.496399,-1.641693 1.16394,-2.087738c-0.332794,-0.449066 0.942627,-2.453247 0.831329,-2.986023c-0.110748,-0.554382 -1.164124,-1.83374 0.554413,-2.920898s3.658386,-2.72583 3.824432,-3.175049c0.110748,-0.446045 1.49649,-2.344757 1.385742,-3.261627c-0.111084,-0.895264 -1.385742,-2.001007 -2.216888,-2.279785c-0.831329,-0.253998 -2.605072,-0.340729 -3.32608,-1.065552s-2.715668,-1.449646 -3.436218,-1.279388c-0.665192,0.192047 -1.884613,0.362518 -2.82663,-0.105316c-0.942627,-0.42746 -2.438904,-1.003601 -3.04895,-1.34433c-0.609375,-0.362305 -2.105743,-0.638092 -2.826416,-0.638092s-0.610229,-0.362305 -1.662872,0.724823c-1.052948,1.087341 0,1.449646 -1.884399,1.279388c-1.884369,-0.170471 0.221344,-0.278778 1.330231,-1.366119c0.997284,-1.087128 -0.16626,-1.72522 -1.330231,-1.449646c-1.164398,0.278778 -0.332397,0.833344 -2.272827,1.087341c-1.828857,0.278778 -1.828857,-0.638092 -0.664734,-0.808563c1.163727,-0.192047 3.270233,-1.003601 3.270233,-1.365906c0,-0.362518 -0.221954,-1.362915 -1.164581,-1.362915s-0.71991,-0.895294 -2.105652,-2.066162c-1.441437,-1.195648 -3.215363,-1.920471 -4.600342,-1.75c-1.441437,0.192047 -2.49469,0.470825 -3.215363,-0.532776c-0.66507,-1.00061 -1.49649,-1.170868 -1.995178,-1.725433c-0.443115,-0.532776 -1.662537,0 -1.995148,-0.256989s-0.388245,-0.275787 -0.388245,-0.275787s-1.496185,0.275787 -0.664886,-0.554352c0.775482,-0.811554 1.163788,-2.34494 0.775482,-2.258209c-0.332367,0.08374 -0.941803,1.362915 -1.496338,1.276184c-0.609955,-0.083527 -0.110443,-0.275574 -1.329956,-0.830139c-1.16449,-0.532776 -3.049042,-0.083527 -3.049042,0.362518c0,0.467621 -0.609436,0.830139 -0.609436,0.830139s-0.332458,-0.275787 -0.664978,-0.830139c-0.388458,-0.532776 -2.050903,-0.619507 -2.827118,-0.08374c-0.831421,0.551361 -1.330109,-1.365906 -1.884552,-1.365906s-1.773193,0.449036 -2.383301,1.279175c-0.553741,0.808563 -0.33252,2.004211 -0.831299,1.895691c-0.443115,-0.083527 -0.554626,-1.619904 -0.443115,-2.171265c0.110504,-0.554565 1.385742,-1.449646 0.443115,-1.620117c-0.941895,-0.192047 -2.327637,0.895294 -2.937805,0.978821c-0.609406,0.108521 -1.773254,0.724823 -2.493896,1.471436c-0.6651,0.724823 -1.053162,1.170868 -1.774139,1.449646c-0.664764,0.253998 -1.718048,0 -1.496063,-0.278778c0.221893,-0.275787 -1.995239,-1.257599 -2.383301,-0.91687c-0.33255,0.362305 -1.385742,0.641083 -2.439026,1.003601c-1.053436,0.384094 -2.050781,-0.449249 -2.272766,-0.811554s-0.720642,-0.446045 -0.831177,-1.638702c-0.110626,-1.173859 0.277435,-2.453247 0.610046,-3.156281c0.332581,-0.724823 -1.774139,-2.196228 -2.605194,-2.109497c-0.83139,0.105316 -1.6633,0.746582 -2.439056,0.638062c-0.887115,-0.083527 -0.498718,-0.253998 -1.773956,-0.253998c-1.329956,0 -0.276886,-0.170258 0,-1.003571c0.222076,-0.80838 -0.498901,-1.917297 0.832123,-2.64212c1.274475,-0.724823 0.83136,-2.450226 0,-2.536957c-0.832123,-0.083557 -2.383972,0.278778 -3.436615,0.192047c-1.053223,-0.105316 -1.884399,0.641266 -1.552124,1.449646c0.387604,0.811554 -0.55423,1.362915 -0.942627,1.279358c-0.332275,-0.105316 -0.831055,-0.554535 -2.106262,0.170288c-1.274292,0.724823 -1.773102,0.449219 -3.048309,-0.362335c-1.33017,-0.808533 -2.715912,-1.620087 -2.992676,-2.899292c-0.221924,-1.279266 -0.332458,-2.536896 0.166321,-3.261688c0.443115,-0.743439 0.443115,-2.001038 -0.27774,-2.193054c-0.720551,-0.17038 0.831299,-1.065552 1.663483,-1.257629c0.831207,-0.192017 2.105652,-1.003571 2.327637,-1.365997c0.276672,-0.362396 1.441345,-0.275665 2.71582,-0.275665c1.330078,0 1.551727,0 2.827148,0.554443c1.330078,0.532776 1.551849,-0.278778 1.551849,-0.554443c0,-0.278809 0.498901,-0.811554 1.884644,-0.724823c1.440582,0.083618 3.436554,-0.362427 3.768951,-0.086731s1.052612,1.365997 1.773285,1.003601c0.720673,-0.362427 0.942627,-1.003601 1.219391,0.083618c0.221924,1.08725 0.776489,2.728912 1.884369,3.004608c1.053436,0.257111 0.444,1.34433 1.496552,1.449646c1.053284,0.086731 1.552063,-1.725342 1.219421,-2.363403c-0.387604,-0.619507 -1.108215,-2.536896 -1.662537,-2.986023c-0.609436,-0.446045 -0.609436,-1.641693 0.554321,-2.00412c1.163727,-0.362396 4.046021,-2.171356 4.822327,-2.707245c0.831421,-0.551361 3.104126,-1.022186 2.38327,-1.747009c-0.720551,-0.724823 -0.942627,-1.170868 -0.942627,-1.725342s0.720856,-0.362396 1.053253,0s1.774017,-0.532776 1.441345,-0.981903c-0.388,-0.446045 -0.277496,-1.08725 0.553894,-1.000488c0.831848,0.083618 1.052948,-0.467743 0.720642,-0.83017c-0.332458,-0.362396 0.831207,-0.811523 1.663391,-0.619507c0.831299,0.17038 2.936951,-0.105286 3.325043,-0.467712c0.332672,-0.362427 -0.720551,-0.724823 -0.720551,-1.449646c0,-0.724823 1.385742,-1.366028 2.216919,-1.449646c0.832001,-0.086731 1.884613,0 1.995972,-0.278778c0.110504,-0.275696 1.330078,-1.000519 1.440674,-0.362427c0.111053,0.641205 0,1.728424 0.942627,1.728424c0.941803,0 2.106323,-0.811554 2.438812,-0.895172c0.387329,-0.086731 2.604645,-0.449158 3.104156,-0.554474c0.443115,-0.086731 3.269257,-0.278778 2.936951,-0.895172c-0.332428,-0.641205 -0.71991,-1.279297 -1.052521,-1.536377c-0.388245,-0.275696 -0.720764,0.086731 -1.219452,0.532776c-0.443909,0.449127 -1.275055,0.449127 -1.497162,0.086731c-0.221008,-0.340729 0.11142,-1.427979 -0.719818,-1.08725c-0.832001,0.362427 -0.942627,0.724823 -1.441528,0.554474c-0.443115,-0.192047 -0.886841,-0.830139 -0.886841,-0.830139s1.163544,-0.42746 0.332489,-1.257599c-0.83139,-0.811554 -1.995087,-0.641205 -3.2146,-0.173462c-1.163788,0.449127 -1.053284,0.343811 -2.439026,0.619507s-2.161316,0.554443 -2.161316,0.554443s1.940094,-0.91687 2.715698,-1.449646c0.83136,-0.554443 1.940277,-0.830139 2.605408,-1.362915c0.720612,-0.554443 2.605072,0.253998 2.605072,0.253998s0.942017,-0.724823 0.942017,-0.253998s-0.222198,1.620026 0.443726,1.620026c0.719818,0 2.715881,-0.724823 1.939575,-0.91687c-0.831299,-0.17038 1.163788,0 1.995758,-0.449158c0.831421,-0.446045 1.718353,-0.446045 2.217163,-0.616394c0.498749,-0.192047 0.831299,-1.003601 1.662415,-1.003601c0.831421,0 1.163818,0.811554 0,1.365997s-1.274994,1.895691 -1.88443,2.258118c-0.610321,0.362396 -0.221863,0.811554 0.720764,0.724823c0.941742,-0.086731 1.718292,0.086731 2.605225,-0.086731s1.274353,0.173462 1.496368,0.449127c0.221863,0.275696 0.941864,-0.275665 0.941864,-0.275665s1.551971,-0.257111 1.995789,0.188934c0.49881,0.449158 0.831207,-0.275665 0.49881,-0.724823c-0.332489,-0.446045 -0.831421,-0.895172 -1.163788,-1.446533c-0.388184,-0.554474 -0.832184,-0.724823 -1.773926,-0.554474c-0.942627,0.192047 -1.163879,-0.170349 -1.7742,-0.449127c-0.6091,-0.275696 -1.052917,0.362396 -0.6091,-0.275696c0.49881,-0.619507 0.720673,-0.811554 1.05307,-1.365997c0.387604,-0.532776 1.939575,-1.533295 0.387604,-1.812073c-1.552002,-0.275665 -1.995117,-0.446045 -2.271973,-0.978821c-0.222076,-0.554443 -1.995819,-1.554932 -2.438934,-1.554932c-0.49881,0 -2.10675,0 -2.272736,-0.449158c-0.110748,-0.446045 -1.274414,-1.449646 -1.884491,-1.917358c-0.554596,-0.449158 -2.826569,-2.453278 -3.158966,-2.623627c-0.388184,-0.192047 -0.832123,-0.083649 -1.884521,1.003601c-1.053284,1.08725 -1.995911,1.279297 -2.827332,1.000519c-0.831116,-0.275696 -0.941833,-0.192047 -1.773743,-0.91687c-0.831299,-0.724854 0.831909,-0.808472 0.443848,-1.257629c-0.33252,-0.446045 -2.217041,-0.638092 -3.38089,-0.724823c-1.219452,-0.105316 -2.051483,-1.105804 -3.824768,-1.192535c-1.718201,-0.086731 -3.88028,0.192047 -4.434052,0.192047c-0.610321,0 -0.610321,0.619507 -0.831421,1.619995c-0.277527,1.000519 0.831421,1.279297 -0.277527,1.471344c-1.053101,0.17038 -1.496216,0.253998 -0.443115,0.616425c1.053314,0.362396 2.493896,1.83374 2.493896,1.83374s0,0.811554 -0.831177,1.257599c-0.831299,0.449127 -1.66272,0.91687 -2.161407,0.384094c-0.443939,-0.554474 -1.77417,-0.467743 -1.385742,0.083618c0.33255,0.532776 1.053101,0.811554 1.053101,1.365997c0,0.532776 1.05246,1.895691 0.332642,2.344849c-0.665131,0.446045 -1.49704,0.105316 -2.106476,0.192047s-1.163757,-0.724823 -0.720642,-0.91687c0.498718,-0.17038 -0.110779,-1.536377 -0.110779,-1.536377s-1.385742,1.536377 -1.274963,0.724823c0.111206,-0.830139 -0.609497,-0.91687 -0.609497,-1.554962c0,-0.638092 -0.720642,-0.895172 -1.773804,-0.724823c-1.053253,0.192047 -2.32782,-0.275665 -4.323517,-0.554443c-2.050751,-0.253998 -2.82666,-0.446045 -4.489136,-1.08725c-1.663239,-0.638092 -2.272644,-0.170349 -3.103851,-0.083618c-0.83136,0.083618 -0.443848,-1.279297 -1.497162,-1.449646c-1.052551,-0.192047 -1.662537,0.170349 -1.884613,-1.003601c-0.276672,-1.170898 0.33255,-1.449677 2.937927,-2.725861c2.605072,-1.279266 2.217041,-1.812042 4.267548,-2.004089c1.996094,-0.170349 2.937897,0.192047 2.937897,-0.25708s0.443939,-2.2798 0.443939,-1.36293s2.383148,0.957138 1.330078,1.598343c-1.053314,0.638062 -0.498901,0.724792 0.332428,0.724792c0.831421,0 2.38327,-0.641174 2.38327,-0.641174s1.884644,-0.638092 2.327759,-0.083618c0.499512,0.532745 0.499512,1.087219 1.330566,1.087219s2.604767,-0.724823 1.053436,-1.365997c-1.497162,-0.638107 -2.49469,-0.554474 -3.436523,-1.279297s-0.665894,-0.446045 -1.718353,-0.253998c-1.053131,0.170364 -1.053131,-0.278778 -1.441528,-0.278778s-0.941742,0.173462 -1.163727,-0.18895c-0.222015,-0.362411 0.110779,-0.449142 1.274567,-0.449142c1.219391,0 2.605133,0.275681 2.605133,0.275681s1.385742,-0.359314 1.774048,-0.467728c0.332336,-0.083633 2.217041,-0.253998 1.88446,-1.065552c-0.388397,-0.830139 -1.552124,-0.830139 -1.88446,-1.087234s0.720642,-0.638092 1.274414,-0.830139c0.610046,-0.170364 2.272522,0 2.272522,0s1.053406,0.083633 1.053406,-0.278778s-0.277008,-0.808456 0.443115,-0.532776s0,1.087234 1.052948,0.895187c1.053436,-0.170364 1.330231,0 1.884644,0.278778c0.610138,0.275681 -0.110474,1.362915 -0.664886,1.554962c-0.609436,0.170364 -1.552063,0.532776 -0.221954,0.619507c1.275055,0.105316 2.217712,0.105316 2.217712,0.105316s0.83139,-0.638092 1.163727,-1.192551c0.387512,-0.532776 0.942078,-0.170364 1.440857,0c0.443848,0.192047 2.216858,0.467728 0.554443,0.830139c-1.662628,0.362411 -1.9953,0.811554 -2.327637,1.257599c-0.332794,0.467728 -0.498779,0.724823 -1.996033,0.467728c-1.551971,-0.275681 -2.383179,-0.192047 -2.715637,0.257095c-0.388184,0.446045 -0.16629,1.917374 0.443665,1.725327c0.609528,-0.170349 1.163727,-0.170349 1.884705,-0.362396c0.71994,-0.17038 3.547058,0.192047 4.267822,0.108398c0.664978,-0.108398 1.88443,0.895172 2.217041,0.724823c0.387451,-0.192047 1.053131,0.362396 1.773193,0.724823c0.720551,0.362396 0.498779,-0.833252 1.773804,-0.108429c1.275116,0.746521 0.554565,0.746521 1.275116,0.746521c0.720154,0 2.271973,0.086731 2.271973,0.086731s0.11142,-0.895203 1.275299,-0.724823c1.219482,0.170349 2.217041,1.170868 2.106323,0.446045c-0.111237,-0.724823 0.110718,-1.279297 -0.776215,-1.812042c-0.941925,-0.554474 -2.493988,-0.916885 -2.715851,-1.192566c-0.276886,-0.257095 -0.498749,-0.619507 -0.16629,-0.811554c0.388153,-0.170364 2.05072,0.086731 2.993286,0.554459c0.941772,0.449142 1.773346,0.91687 2.438324,0.554459c0.720764,-0.362411 1.552063,-0.554459 1.88446,-0.830139c0.388275,-0.278778 1.21933,-1.087234 1.21933,-1.087234s-3.546906,-0.362411 -4.045654,-0.811554c-0.443878,-0.467728 -2.106415,-1.084137 -2.605194,-1.084137s-1.718262,0.616409 -2.21701,-0.278778s-0.443878,-2.004105 -0.942627,-2.087738c-0.443115,-0.086731 -5.431763,-0.64119 -6.152496,-0.91687c-0.665009,-0.257095 -3.491333,-0.895187 -4.600342,-1.366013s-2.549469,-1.084137 -3.492096,-1.084137c-0.941864,0 -4.877197,0.362411 -5.542206,0.275681c-0.720734,-0.086731 -2.882263,0.192047 -3.658508,0.275681c-0.831512,0.086731 1.053131,1.257599 -0.720673,1.536377c-1.773285,0.275681 -1.552094,0.467728 -1.163788,-0.895187c0.332336,-1.366013 -1.219635,-1.725327 -2.715881,-1.192551c-1.552124,0.551361 -4.046112,0.913773 -3.436615,1.554962c0.609528,0.638092 -0.110596,1.087234 1.053375,1.725327c1.163788,0.619507 1.662567,0.811554 3.158936,0.724823c1.55188,-0.105316 3.103973,0.170364 3.103973,0.170364s0,1.087234 -0.609467,1.279282c-0.554321,0.170364 -1.496216,0.170364 -1.773956,0.724823c-0.221039,0.532776 -1.385742,0.811554 -1.385742,0.532776s0.610107,-1.170868 -0.221039,-1.62001c-0.831299,-0.467728 -1.108917,-0.554459 -2.050934,-0.105316c-0.942627,0.467728 -1.053131,0.638092 -1.49704,-0.086731c-0.498718,-0.724823 -1.88446,-1.362915 -1.88446,-1.362915s-0.941833,-0.895187 -1.662567,-1.34433c-0.720673,-0.467728 -1.995117,-0.384094 -2.106384,0.086731c-0.166351,0.446045 0.22171,0.895187 0.664856,1.725327c0.499512,0.811554 0.942627,2.344833 0.11142,2.453247c-0.776276,0.083633 -0.942627,0.170364 -1.773956,0.359314c-0.775543,0.173462 -1.163879,-0.275681 -1.163879,-1.000504s-0.332397,-1.362915 -0.110443,-1.641693c0.221161,-0.275681 -0.942627,0.192047 -2.106598,0c-1.219421,-0.170364 -2.106293,0.362411 -0.942627,0.64119c1.164703,0.275681 1.385742,1.362915 0.332611,1.641693c-1.052521,0.275681 -5.09906,0 -6.373627,0s-3.159668,0.275681 -3.54776,-0.278778c-0.332458,-0.554459 1.053284,-0.895187 1.88443,-0.895187c0.831451,0 3.32608,0.086731 4.267975,-0.91687c0.942627,-1.000504 -1.218903,-1.170868 -2.105988,-1.170868c-0.942627,0 -1.663147,-0.278778 -2.715698,-1.087219c-1.108734,-0.811554 0.665192,-1.366028 0.443115,-1.728424c-0.221771,-0.362411 -1.385742,-0.105316 -2.438904,-0.105316c-1.108215,0 -2.715881,-0.619507 -2.715881,0.105316c0,0.724823 1.275299,2.815659 0.443115,2.344818c-0.831299,-0.446045 -0.719879,-1.087219 -1.274414,-1.619995c-0.610046,-0.554474 -1.551849,-0.467743 -2.715668,-0.362411c-1.164551,0.086731 -3.215393,0.362411 -3.769318,0.257095c-0.609833,-0.086731 -0.111145,-0.086731 -1.441315,-0.532776c-1.274384,-0.449142 -1.88443,-0.362411 -2.826233,-0.811554c-0.942627,-0.467743 -0.111328,-0.659775 -1.774109,-0.743408c-1.607574,-0.086731 -1.496155,0.638092 -3.159607,0.446045c-1.662567,-0.170364 -2.105682,0.108414 -3.769104,0c-1.662506,-0.083633 -2.493805,-0.170364 -2.715912,0.467728c-0.221741,0.64119 -0.72052,1.728424 -1.440552,1.728424c-0.66571,0 -1.551941,0.638092 0.720032,0.724823c2.217041,0.083633 0.942627,0.895187 2.937744,0.808456c1.995819,-0.083633 3.76886,-0.083633 4.267792,-0.808456c0.443695,-0.724823 0.832062,-0.724823 1.053192,-0.470825c0.221985,0.278778 1.996002,1.920471 1.996002,1.920471s1.218597,0.724823 1.662506,0.895187c0.443115,0.192047 -0.443909,1.000504 -1.441315,0.554459c-0.942047,-0.470825 -2.660309,-0.362411 -3.380951,-0.811554c-0.720703,-0.467728 -3.935303,-0.467728 -4.711578,-0.362411c-0.831421,0.086731 -2.271973,-0.275681 -2.71582,-0.275681c-0.498779,0 -2.050873,0.91687 -2.050873,0.91687s-0.553894,-0.746506 -0.941803,-1.108917c-0.332611,-0.362411 -0.942627,0.362411 -1.385742,0.446045c-0.49881,0.108414 -1.884552,-0.724823 -3.326202,-0.362411c-1.385742,0.362411 -0.941803,0.724823 -2.937469,0.64119s-2.493896,-0.362411 -3.158966,-0.278778c-0.720673,0.108414 -0.720673,0.108414 -0.720673,0.108414s0.110504,0.362411 -0.720703,0.724823c-0.831451,0.362411 -1.440765,0.808456 -1.995209,0.275681c-0.61026,-0.554459 -0.942627,-0.554459 -1.330109,-0.638092c-0.332397,-0.108414 -1.053223,-0.554459 -2.549591,-0.278778c-1.551941,0.278778 -3.936005,-0.362411 -4.37912,-0.362411c-0.388153,0 -2.826324,-0.105316 -4.43399,-0.232315c19.122009,-16.008057 46.503693,-26.112213 76.988495,-26.112213c19.288391,0 37.35788,4.113525 52.932953,11.148026c-1.053253,0.511093 -2.937927,0.42746 -3.547424,0.170364c-0.720428,-0.297363 -1.441284,-0.554459 -4.323212,-0.42746c-2.882233,0.130096 -6.041718,0.854919 -5.376984,1.579742c0.665314,0.724823 -1.27417,1.149185 -1.773071,0.786774c-0.498901,-0.362411 -2.827271,0.405777 -2.660858,1.152283c0.11145,0.724823 -0.388062,1.576645 -1.606812,1.384598c-1.219513,-0.192047 -2.106506,0.42746 -2.16214,1.022186c-0.055176,0.597824 -2.82666,1.025284 -2.992645,1.025284c-0.221954,0 -3.769226,-0.065048 -2.49469,0.659775c0.886993,0.48941 1.385742,0.192047 2.49469,0.362411c1.053131,0.192047 1.939362,1.514694 2.493744,1.703644c0.554535,0.173462 1.385742,0 1.718414,-0.362411c0.388184,-0.359314 0.886993,-1.638596 0.886993,-1.638596s0,1.214233 0.831268,1.449646c0.886963,0.253998 3.048309,-0.170364 3.602661,-0.108414c0.609528,0.043365 3.990814,0.42746 4.87796,0.768188c0.941711,0.362411 3.270081,0.616409 3.879578,1.406281c0.665192,0.789871 0.775635,3.497116 1.108307,3.816162c0.388184,0.297363 1.551971,-0.981918 1.88443,-1.279282c0.277679,-0.297363 1.774048,-0.126999 2.272797,0.297363c0.498627,0.42746 1.663177,1.449646 1.607605,1.877106c-0.110809,0.424362 -0.332428,1.087234 -0.720612,0.851822c-0.443115,-0.235413 -1.163879,-0.170364 -0.886993,-0.659775c0.277435,-0.492508 0.443878,-1.514694 -0.110565,-1.514694c-0.610199,0 -1.108948,0 -1.108948,0s-1.108093,-0.253998 -1.828857,0.659775s-0.110718,1.812057 0.387939,1.812057s1.662872,0 1.662872,0.235413c0,0.257095 -1.219757,0.981918 -1.163879,1.406281c0.110504,0.42746 0.997559,1.855423 1.329865,2.174469c0.27713,0.297363 1.7742,0.597824 2.217316,0.659775c0.443878,0.065048 -0.997559,0.130096 -0.665192,0.554474c0.388306,0.427429 0.942627,1.449615 1.718353,1.685028c0.831207,0.253998 3.048401,1.322662 3.325928,1.812073c0.276764,0.48941 1.995178,-0.362427 2.383362,-0.42746c0.332489,-0.043365 0.276794,1.279266 1.274353,1.34433c0.99762,0.061951 1.385742,-0.130096 2.217041,-0.68457s0.665161,-1.254486 0.720764,-1.80896c0.110443,-0.532776 0,-0.960236 0.942627,-0.789856c0.941956,0.192047 1.440704,-0.127014 1.385742,-0.724823c-0.111328,-0.597809 -0.886902,-1.322647 0.609161,-1.514694c1.552094,-0.170364 2.32782,-0.957138 3.270416,-0.957138c0.941895,0 3.492249,0.297363 3.769043,0c0.332367,-0.300461 1.552063,-1.706741 2.327606,-1.747009c0.610199,-0.065048 2.050903,-0.151779 3.492126,-0.300461c14.355621,13.173813 23.279449,29.925262 24.277008,48.213104c-1.052551,1.130524 -0.110687,2.131104 0.166046,2.855927c0.055878,0.213654 0.055878,0.405701 0.055878,0.619507c0,0.960236 -0.110565,1.877106 -0.16629,2.812561c0,0.021606 0,0.043365 -0.055634,0.043365zm-88.240143,-30.204071c-0.554413,0.086731 -1.496246,-0.359314 -1.496246,-1.000488s-0.831512,1.17395 -0.388397,1.725311c0.498901,0.532776 -0.941742,1.173981 -1.385742,1.173981s-0.831055,-0.811554 -0.720612,-1.620026c0.111511,-0.811554 -0.719849,-1.554962 -1.995087,-1.449646c-1.329956,0.086731 -1.884644,0.895203 -2.38327,1.170868c-0.443115,0.278778 -0.443115,1.812073 -0.332428,2.174469s0.110443,1.641693 -1.053314,1.558075c-1.053101,-0.086731 -0.831329,-1.641693 -0.720703,-2.174469c0.11145,-0.554474 -0.332397,-1.917389 0.11145,-2.642212c0.498779,-0.724823 1.884521,-1.003601 2.826416,-1.087219s2.937592,0.467712 3.325806,0.362396c0.332642,-0.086731 1.995178,-0.086731 2.826385,0c0.831329,0.083649 1.99588,1.725342 1.385742,1.80896zm2.161499,0.278778c0.333099,0.17038 2.827057,-0.278778 3.270203,0.17038c0.499512,0.449127 -0.498718,0.554443 -1.662567,0.91687c-1.163757,0.362396 -1.496552,0.253998 -1.995178,0.724823s-1.995728,0.616394 -2.715973,1.170868c-0.720612,0.554443 -1.939972,0.873505 -2.216797,0.449127c-0.388275,-0.532776 0.110443,-0.278748 0.221222,-0.532776c0.111206,-0.278748 2.217041,-0.91687 2.217041,-0.91687s2.494507,-2.174469 2.88205,-1.982422zm-9.477539,-3.196655c-0.332672,0.105316 -1.607635,-0.170349 -2.71582,-0.170349c-1.053467,0 -0.832001,-0.554474 -1.275116,-0.449158c-0.498962,0.086731 -1.552032,0.278778 -2.272705,0.554474c-0.66507,0.25708 -1.884521,0.192047 -1.884521,-0.297363c0,-0.724823 0.498779,-0.532776 2.050507,-0.981934c1.497314,-0.467712 3.159882,-1.725311 3.880524,-1.192535c0.720703,0.554443 1.995239,1.192535 2.826538,1.279266c0.831177,0.083649 -0.221466,1.170868 -0.609406,1.257599zm-12.027954,-28.134888c-0.720551,0.170364 -3.159576,0.957138 -2.937592,1.384598c0.110321,0.148682 0.720642,0.467728 1.71817,0.362411c1.053314,-0.126999 2.494659,-0.257095 3.2146,-0.297363c0.72052,-0.065048 0.886902,-0.981918 0.11142,-1.025284c-0.776642,-0.061951 -1.441406,-0.616409 -2.106598,-0.424362zm-8.757568,0.724823c-0.554443,0.170364 -2.216949,-0.300461 -3.048279,0.126999c-0.554413,0.253998 -0.222107,1.1306 0.609406,1.192551c0.887024,0.065048 2.383087,-0.424362 2.549469,-0.061951c0.166412,0.362411 0.665924,2.001007 2.106445,1.449646c1.385742,-0.532776 1.33017,-1.025284 1.718414,-1.087234c0.388092,-0.065048 -0.055664,-1.387695 -0.720856,-1.685059c-0.609222,-0.297363 -2.660065,-0.126999 -3.2146,0.065048zm-2.826416,-5.138809c0.166351,0.300461 -0.055573,0.532776 0.997559,0.662872c1.108307,0.126999 1.607086,0.232315 2.217041,0.232315c0.665039,0 0.388336,-0.786774 -0.166107,-1.31955c-0.554596,-0.554459 -0.388184,-0.492508 -1.773926,-0.789871c-1.441406,-0.297363 -2.826416,-0.297363 -3.769043,-0.257095c-0.941986,0.065048 -1.995117,-0.105316 -2.217041,0.724823c-0.110687,0.449142 0.609222,0.789871 1.551849,0.789871s2.992828,-0.362411 3.159668,-0.043365zm2.050781,3.305069c0.387543,0.681458 0.387543,0.362411 1.49649,0.424362c1.108002,0.065048 1.940125,-0.830139 2.050629,-1.127502c0.055786,-0.319046 -0.554443,-0.91687 -2.050629,-0.789871c-1.49649,0.108414 -6.041748,-0.192047 -6.70694,0.235413c-0.609222,0.405777 0,1.62001 -0.221771,1.747009c-0.221344,0.126999 0.055664,0.659775 0.720703,0.554459c0.609375,-0.126999 0.942596,-1.279282 1.385712,-1.279282c0.498749,0 2.937775,-0.424362 3.325806,0.235413zm-14.799225,-2.471832c0.498688,0.297363 1.662476,0.061951 1.552063,-0.235413c-0.055664,-0.297363 0.498779,-1.514694 -0.443848,-1.576645c-0.941895,-0.065048 -2.271973,0.659775 -3.713379,1.022186c-0.886963,0.235413 -0.665039,0.91687 -0.055664,0.91687s2.216888,-0.42746 2.660828,-0.126999zm6.706757,1.087234c-0.776276,0.297363 -1.053131,0.48941 -1.718323,0.362411c-0.720551,-0.108414 -0.720551,-1.087234 -1.995789,-0.895187c-1.218811,0.170364 -1.496246,0.724823 -1.88443,0.957138s-1.274597,0.42746 -1.552155,0.300461c-0.332367,-0.108414 -2.10556,-0.895187 -2.10556,-0.895187s-3.824799,-0.130096 -3.935303,-0.492508c-0.166351,-0.362411 -0.776367,-0.957138 -2.549561,-0.830139s-4.711761,0.895187 -5.154877,0.895187c-0.49884,0 0.553802,0.724823 -0.111328,0.724823c-0.609467,0 -1.385742,-0.043365 -1.662506,0.48941c-0.166351,0.362411 0.720703,0.362411 1.718109,0.362411c1.053375,0 2.715881,0 3.159821,-0.192047c0.498688,-0.170364 2.826263,-0.594727 2.77066,-0.061951c-0.110779,0.551361 0.942627,1.406281 1.49707,1.276184c0.553802,-0.126999 1.662537,-0.913773 2.217072,-0.594727c0.55368,0.297363 0.609436,1.022186 1.163788,1.214233c0.55426,0.170364 2.050812,0.170364 2.771484,0c0.66507,-0.192047 2.660248,-0.192047 3.491455,-0.065048c0.886902,0.108414 3.381683,0.470825 3.658386,0.108414c0.221985,-0.362411 0.942627,-0.42746 0.997711,-0.789871s0.443756,-1.493011 0.443756,-1.493011s-0.443756,-0.681458 -1.219482,-0.380997zm39.796936,62.557724c-1.053314,0.148682 -0.776337,1.768768 0.498749,1.471405c1.274323,-0.300537 0.609436,-1.620087 -0.498749,-1.471405zm10.308868,-2.15271c-0.941895,-0.192047 -2.050812,0 -2.71582,0.083557c-0.720123,0.086731 -2.715851,1.449646 -2.715851,1.449646s1.275177,0.192047 2.106354,0.192047c0.83139,0 1.274506,0.340729 1.995239,0.619507c0.720642,0.275757 1.995575,-0.362335 2.494476,-0.362335c0.443115,0 1.053253,1.087158 1.163971,-0.086731c0.110504,-1.192627 -1.385742,-1.725403 -2.328369,-1.895691zm-32.868225,-58.828369c-0.388245,-0.724823 -2.383392,-0.981918 -2.771484,-0.235413c-0.332458,0.619507 3.159576,0.960236 2.771484,0.235413zm22.447784,54.374115c1.330231,-0.192047 0.610321,-1.003601 -0.443115,-0.91687c-1.108612,0.105316 -0.831055,1.108917 0.443115,0.91687zm15.686279,5.603363c-1.052917,0.148682 -0.831055,1.768768 0.498901,1.471405c1.274475,-0.275757 0.609528,-1.620087 -0.498901,-1.471405zm-14.244751,-2.707245c-0.831207,0.10849 -2.605255,-0.616333 -3.547089,-1.257599c-0.942627,-0.638 -2.716431,-0.638 -3.436523,-0.638c-0.665649,0 -3.54776,0.638 -3.54776,0.638c-0.11084,0.895264 1.053253,0.619507 2.494659,0.619507s3.879486,-0.170288 4.378387,0.275757c0.443726,0.449066 2.549591,1.173889 3.159424,1.557983c0.609528,0.362488 2.493988,0.446045 2.605499,0.08371s-1.275269,-1.362915 -2.106598,-1.279358zm-14.078461,-57.933105c-1.164093,-0.061951 -2.660156,-0.061951 -3.602783,0c-0.942627,0.065048 -1.66275,-0.48941 -2.383301,-0.786774c-0.720978,-0.297363 -2.272705,-1.279282 -3.2146,-1.384598c-0.942627,-0.130096 -0.77652,-0.130096 -2.771484,-0.492508c-0.997711,-0.192047 -2.66095,-0.424362 -2.66095,-0.594727c0,-0.192047 -0.443115,0.851822 0.388245,1.149185c0.886963,0.300461 2.272705,0.851822 3.325897,1.152283c0.997314,0.297363 2.992554,0.362411 3.602814,0.957138c0.6091,0.597824 2.770752,1.087234 2.770752,1.087234l2.494476,0.192047c0,0 1.718353,-0.297363 3.547211,-0.192047c1.829651,0.130096 4.489807,0.300461 5.986084,0.257095c1.496857,-0.065048 1.718323,-0.42746 1.88446,-0.659775c0.166321,-0.257095 -2.770691,-0.724823 -3.491394,-0.662872c-0.665039,0.043365 -4.711761,0.043365 -5.875427,-0.021683zm4.378265,13.920319c-0.276886,0.253998 1.441528,0.65976 1.773956,0.297363c0.276978,-0.362427 -0.941833,-0.978821 -1.773956,-0.297363zm5.321198,1.257599c0.776306,-0.257111 0.388,-0.981934 -0.720245,-0.724823c-1.274933,0.275665 -0.111115,0.960236 0.720245,0.724823z" id="svg_22"/>
  <text xml:space="preserve" text-anchor="left" font-family="Helvetica, Arial, sans-serif" font-size="24" id="svg_6" y="63.5" x="155.5" stroke-opacity="null" stroke-width="0" stroke="#000" fill="#FFAC8D">BEELDIGE BROCHURE</text>
  <path opacity="0.42" stroke="#000" transform="rotate(74.22114562988281 236.37786865234378,42.376708984375) " id="svg_9" d="m260.265747,-147.993256l-193.62793,326.654602l125.565887,-61.775299l20.286438,115.860626l193.627777,-326.664703l-145.852173,-54.075226zm29.675293,100.01667c-9.611511,-3.571167 -13.767395,-12.623322 -9.252777,-20.225533c4.528564,-7.601852 15.973877,-10.889008 25.584259,-7.317497s13.775146,12.633675 9.260681,20.240685s-15.96106,10.873367 -25.592163,7.302345z" stroke-opacity="null" stroke-width="1.5" fill="#A0D58A"/>
 </g>
</svg>